# Alias OBJ Model File
# Exported from SketchUp, (c) 2000-2012 Trimble Navigation Limited
# File units = meters

mtllib cylinder-6.mtl

g Mesh1 cylinder_6_1 Model

usemtl FrontColor
v 0.5 -0.5 -0
vt 34.4488 0
vn 1 0 1.60247e-016
v 0.25 0.5 0.433013
vt 14.7638 39.3701
vn 0.5 0 0.866025
v 0.25 -0.5 0.433013
vt 14.7638 0
f 1/1/1 2/2/2 3/3/2

v 0.5 0.5 -0
vt 34.4488 39.3701
f 2/2/2 1/1/1 4/4/1

v 0.25 -0.5 -0.433013
vn 0.5 0 -0.866025
vt -4.92126 39.3701
vt -4.92126 0
f 5/3/3 4/5/1 1/6/1

v 0.25 0.5 -0.433013
f 4/5/1 5/3/3 6/2/3

vt -29.5276 0
v -0.25 0.5 -0.433013
vt -9.84252 39.3701
vn -0.5 0 -0.866025
vt -29.5276 39.3701
f 5/7/3 7/8/4 6/9/3

v -0.25 -0.5 -0.433013
vt -9.84252 0
f 7/8/4 5/7/3 8/10/4

vn 0 -1 -0
vt -9.84252 34.0955
vt -29.5276 34.0955
f 3/7/5 8/11/5 5/12/5

v -0.25 -0.5 0.433013
vt -9.84252 1.42109e-014
f 9/13/5 8/11/5 3/7/5

v -0.5 -0.5 -9.02389e-017
vt 0 17.0477
f 8/11/5 9/13/5 10/14/5

vt 4.92126 0
vn -0.5 0 0.866025
v -0.5 0.5 -9.02389e-017
vt -14.7638 39.3701
vn -1 0 -2.88444e-016
vt -14.7638 0
f 9/15/6 11/16/7 10/17/7

v -0.25 0.5 0.433013
vt 4.92126 39.3701
f 11/16/7 9/15/6 12/18/6

vt 9.84252 0
vt 29.5276 39.3701
vt 9.84252 39.3701
f 9/19/6 2/20/2 12/21/6

vt 29.5276 0
f 2/20/2 9/19/6 3/22/2

vt 9.84252 34.0955
vn 0 1 -0
vt 9.84252 1.42109e-014
f 7/23/8 12/24/8 2/22/8

f 12/24/8 7/23/8 11/14/8

vt -34.4488 39.3701
f 7/25/4 10/17/7 11/16/7

vt -34.4488 0
f 10/17/7 7/25/4 8/26/4

vt 29.5276 34.0955
f 7/23/8 2/22/8 6/27/8

vt 39.3701 17.0477
f 6/27/8 2/22/8 4/28/8

vt -39.3701 17.0477
f 3/7/5 5/12/5 1/29/5

