# Alias OBJ Model File
# Exported from SketchUp, (c) 2000-2012 Trimble Navigation Limited
# File units = meters

mtllib sphere-8.mtl

g Mesh1 Model

usemtl FrontColor
v -0.5 -6.12323e-017 1.97398e-017
vt 7.53314 6.50002
vn -1 2.41253e-016 2.41253e-016
v -0.25 -0.353553 -0.25
vt -5.32673 -8.40383
vn -0.494177 -0.715247 -0.494177
v -0.353553 -0.353553 9.02389e-017
vt 5.32673 -8.40383
vn -0.698872 -0.715247 4.22088e-016
f 1/1/1 2/2/2 3/3/3

v -0.353553 -1.69499e-016 -0.353553
vt -7.53314 6.50002
vn -0.707107 -3.21671e-017 -0.707107
f 2/2/2 1/1/1 4/4/4

v -0.353553 0.353553 -9.02389e-017
vt 5.32673 8.40383
vn -0.698872 0.715247 -7.81644e-017
vt -7.53314 -6.50002
vt 7.53314 -6.50002
f 5/5/5 4/6/4 1/7/1

v -0.25 0.353553 -0.25
vt -5.32673 8.40383
vn -0.494177 0.715247 -0.494177
f 4/6/4 5/5/5 6/8/6

v -4.51195e-017 0.5 -2.25597e-016
vt -7.52592e-015 8.05326
vn 7.60438e-018 1 -3.57406e-016
vt -5.32673 -6.03995
vt 5.32673 -6.03995
vn -0.698872 0.715247 -7.03479e-017
f 7/9/7 6/10/6 5/11/8

vt -1.75777e-015 8.05326
vn 1.52088e-017 1 -3.49801e-016
v -1.80478e-016 0.353553 -0.353553
vn -3.12657e-017 0.715247 -0.698872
f 7/12/9 8/10/10 6/11/6

v 0.25 0.353553 -0.25
vn 0.494177 0.715247 -0.494177
vn -4.68986e-017 0.715247 -0.698872
vt 4.59596e-015 8.05326
vn 1.52088e-017 1 -3.57406e-016
f 9/10/11 8/11/12 7/13/13

v 0.353553 -8.64106e-017 -0.353553
vn 0.707107 1.93003e-016 -0.707107
f 10/6/14 8/5/12 9/8/11

v -1.35358e-016 -2.52587e-016 -0.5
vn -4.82506e-017 -6.43342e-017 -1
f 8/5/12 10/6/14 11/7/15

v 0.25 -0.353553 -0.25
vn 0.494177 -0.715247 -0.494177
vn -4.82506e-017 -8.04177e-017 -1
f 12/2/16 11/1/17 10/4/14

v -4.51195e-017 -0.353553 -0.353553
vn -4.68986e-017 -0.715247 -0.698872
f 11/1/17 12/2/16 13/3/18

vt -5.32673 6.03995
v 5.63993e-017 -0.5 4.51195e-017
vt -2.28712e-015 -8.05326
vn -2.66153e-017 -1 3.6501e-016
vt 5.32673 6.03995
vn -3.90822e-017 -0.715247 -0.698872
f 12/14/16 14/15/19 13/16/20

v 0.353553 -0.353553 4.51195e-017
vn 0.698872 -0.715247 8.59808e-017
vt -2.04678e-015 -8.05326
vn -3.80219e-017 -1 3.53603e-016
f 15/14/21 14/17/22 12/16/16

vn 0.698872 -0.715247 9.37972e-017
v 0.25 -0.353553 0.25
vn 0.494177 -0.715247 0.494177
vt -7.91412e-016 -8.05326
vn -3.80219e-017 -1 3.6501e-016
f 15/16/23 16/14/24 14/18/25

v 0.5 -6.12323e-017 -4.51195e-017
vn 1 4.50339e-016 -1.44752e-016
f 17/1/26 16/2/24 15/3/23

v 0.353553 4.70342e-017 0.353553
vn 0.707107 6.11175e-016 0.707107
f 16/2/24 17/1/26 18/4/27

v 0.25 0.353553 0.25
vn 0.494177 0.715247 0.494177
f 17/7/26 19/8/28 18/6/27

v 0.353553 0.353553 -9.02389e-017
vn 0.698872 0.715247 -2.34493e-016
f 19/8/28 17/7/26 20/5/29

vn 1 4.50339e-016 -1.60835e-016
f 10/7/14 20/8/29 17/6/30

f 20/8/29 10/7/14 9/5/11

vt 8.88548e-015 8.05326
vn 1.52088e-017 1 -3.6501e-016
f 20/10/29 9/11/11 7/19/31

vn 0.698872 0.715247 -2.4231e-016
vt 7.97001e-015 8.05326
vn 1.52088e-017 1 -3.61208e-016
f 20/11/32 7/20/33 19/10/28

vt 1.31368e-015 8.05326
vn 1.14066e-017 1 -3.49801e-016
v 0 0.353553 0.353553
vn 2.34493e-017 0.715247 0.698872
f 19/11/28 7/21/34 21/10/35

vn 3.12657e-017 0.715247 0.698872
vt -5.04005e-015 8.05326
vn 2.28131e-017 1 -3.57406e-016
v -0.25 0.353553 0.25
vn -0.494177 0.715247 0.494177
f 21/11/36 7/22/37 22/10/38

vt -8.88548e-015 8.05326
f 7/23/37 5/10/5 22/11/38

vn -1 2.2517e-016 2.41253e-016
f 1/6/39 22/5/38 5/8/5

v -0.353553 4.45164e-017 0.353553
vn -0.707107 4.82506e-016 0.707107
f 22/5/38 1/6/39 23/7/40

v -0.25 -0.353553 0.25
vn -0.494177 -0.715247 0.494177
vn -0.707107 4.9859e-016 0.707107
f 1/4/1 24/3/41 23/1/42

f 24/3/41 1/4/1 3/2/3

vt 2.49087e-015 -8.05326
vn -4.56263e-017 -1 3.68812e-016
vn -0.698872 -0.715247 4.14271e-016
f 14/24/43 24/16/41 3/14/44

v 9.02389e-017 -0.353553 0.353553
vn 7.03479e-017 -0.715247 0.698872
vt 2.73121e-015 -8.05326
vn -4.18241e-017 -1 3.72614e-016
f 25/16/45 24/14/41 14/25/46

vn 6.25315e-017 -0.715247 0.698872
f 25/3/47 23/4/42 24/2/41

v 4.51195e-017 1.30123e-016 0.5
vn 6.43342e-017 6.59425e-016 1
f 23/4/42 25/3/47 26/1/48

vn 7.81644e-017 -0.715247 0.698872
f 25/2/49 18/1/27 26/4/48

f 18/1/27 25/2/49 16/3/24

vt 1.37164e-015 -8.05326
vn -3.42197e-017 -1 3.80219e-016
f 16/16/24 25/14/45 14/26/50

f 19/5/28 26/6/48 18/7/27

vn 1.56329e-017 0.715247 0.698872
f 26/6/48 19/5/28 21/8/51

vn 6.43342e-017 6.43342e-016 1
f 22/8/38 26/7/52 21/5/36

f 26/7/52 22/8/38 23/6/42

vt 3.47323e-016 -8.05326
vn -3.04175e-017 -1 3.76417e-016
vn -0.698872 -0.715247 3.98638e-016
f 14/27/53 3/16/54 2/14/2

vt -1.37164e-015 -8.05326
vn -2.66153e-017 -1 3.72614e-016
vn -2.34493e-017 -0.715247 -0.698872
f 14/28/55 2/16/2 13/14/56

vn -6.43342e-017 -8.04177e-017 -1
vn -3.12657e-017 -0.715247 -0.698872
f 2/3/2 11/4/57 13/2/58

f 11/4/57 2/3/2 4/1/4

f 4/7/4 8/8/10 11/6/57

f 8/8/10 4/7/4 6/5/6

f 17/4/30 12/3/16 10/1/14

f 12/3/16 17/4/30 15/2/23

